<svg xmlns="http://www.w3.org/2000/svg" viewBox="0 0 56 56" role="img" aria-labelledby="waTitle waDesc">
  <title id="waTitle">WhatsApp</title>
  <desc id="waDesc">Icona WhatsApp verde con simbolo bianco</desc>
  <defs>
    <linearGradient id="waGreen" x1="0%" y1="0%" x2="0%" y2="100%">
      <stop offset="0%" stop-color="#5eeb73"/>
      <stop offset="100%" stop-color="#25d366"/>
    </linearGradient>
  </defs>
  <rect x="0" y="0" width="56" height="56" rx="13" fill="url(#waGreen)"/>
  <g transform="translate(5.6 5.6) scale(2.8)" fill="#ffffff">
    <path d="M13.601 2.326A7.854 7.854 0 0 0 8.016 0C3.495 0 .001 3.493 0 8.014a7.98 7.98 0 0 0 1.274 4.218L0 16l3.84-1.258a8.035 8.035 0 0 0 4.173 1.145h.003c4.52 0 8.014-3.493 8.015-8.013a7.95 7.95 0 0 0-2.43-5.548zM8.019 14.56h-.002a6.57 6.57 0 0 1-3.35-.92l-.24-.144-2.28.747.744-2.22-.155-.228a6.565 6.565 0 0 1-1.005-3.505c.002-3.64 2.966-6.603 6.61-6.603 1.77 0 3.431.688 4.684 1.94a6.56 6.56 0 0 1 1.939 4.684c-.002 3.639-2.965 6.602-6.605 6.602zm3.616-4.95c-.197-.099-1.17-.578-1.35-.644-.18-.066-.311-.099-.442.1-.131.197-.508.644-.623.776-.115.131-.23.148-.427.05-.197-.1-.833-.307-1.587-.98-.586-.523-.982-1.168-1.097-1.365-.115-.197-.012-.304.087-.402.088-.088.197-.23.296-.345.099-.115.131-.197.197-.328.066-.132.033-.248-.017-.347-.05-.099-.442-1.066-.607-1.46-.16-.387-.324-.334-.442-.34l-.376-.007a.723.723 0 0 0-.525.247c-.18.198-.689.673-.689 1.64s.705 1.902.804 2.034c.099.131 1.388 2.12 3.366 2.971.471.203.839.325 1.125.416.472.15.902.129 1.242.078.379-.056 1.17-.479 1.334-.941.164-.462.164-.858.115-.94-.05-.084-.18-.132-.377-.231z"/>
  </g>
</svg>
